<svg width="26" height="26" viewBox="0 0 26 26" fill="none" xmlns="http://www.w3.org/2000/svg">
<path d="M10.463 10.3017C10.463 9.0752 9.6286 9.0752 9.6286 9.0752H9.1868H6.1958V11.7068H9.41581C9.97225 11.7066 10.463 11.5286 10.463 10.3017Z" fill="black"/>
<path d="M9.62886 13.5259H6.1958V16.6778H9.47034C9.96294 16.6637 10.8721 16.5094 10.8721 15.1457C10.8721 13.5094 9.62886 13.5259 9.62886 13.5259Z" fill="black"/>
<path d="M18.418 11.7061C16.5963 11.7061 16.3423 13.5241 16.3423 13.5241H20.2164C20.2166 13.5241 20.2398 11.7061 18.418 11.7061Z" fill="black"/>
<path d="M13 0C5.82028 0 0 5.82054 0 13C0 20.1795 5.82028 26 13 26C20.1797 26 26 20.1795 26 13C26 5.82054 20.1797 0 13 0ZM15.8343 7.67313H20.7003V9.1254H15.8343V7.67313ZM13.375 15.2904C13.375 18.89 9.62891 18.7716 9.62891 18.7716H6.19585H6.09504H3.49185V6.97837H6.09504H6.19585H9.62864C11.4937 6.97837 12.966 8.008 12.966 10.1183C12.966 12.2289 11.1663 12.3627 11.1663 12.3627C13.5386 12.3627 13.375 15.2904 13.375 15.2904ZM18.4407 17.1504C20.401 17.1504 20.3316 15.8817 20.3316 15.8817H22.4071C22.4071 19.2488 18.3716 19.0182 18.3716 19.0182C13.5288 19.0182 13.8402 14.5097 13.8402 14.5097C13.8402 14.5097 13.8365 9.97895 18.371 9.97895C23.1447 9.97895 22.4762 15.0978 22.4762 15.0978H16.3652C16.3652 17.2893 18.4407 17.1504 18.4407 17.1504Z" fill="black"/>
</svg>
