<svg width="25" height="26" viewBox="0 0 25 26" fill="none" xmlns="http://www.w3.org/2000/svg">
<g clip-path="url(#clip0_137_430)">
<path fill-rule="evenodd" clip-rule="evenodd" d="M12.0122 0.632416C5.38072 0.632416 0 6.15473 0 12.9607C0 19.7667 5.38072 25.2889 12.0122 25.2889C18.6306 25.2889 24.0243 19.7667 24.0243 12.9607C24.0243 6.15473 18.6306 0.632416 12.0122 0.632416ZM19.9464 6.31518C21.3795 8.10693 22.2395 10.3934 22.2655 12.8671C21.9268 12.8003 18.5393 12.0915 15.1259 12.5328C15.0478 12.359 14.9826 12.1718 14.9045 11.9846C14.696 11.4765 14.4615 10.955 14.227 10.4603C18.0052 8.88249 19.7249 6.60935 19.9464 6.31518ZM12.0122 2.4509C14.6178 2.4509 17.002 3.45375 18.813 5.09841C18.6306 5.36583 17.0802 7.49186 13.4322 8.89582C11.7516 5.72685 9.88856 3.13283 9.60192 2.7317C10.3705 2.5445 11.1784 2.4509 12.0122 2.4509ZM7.64769 3.44037C7.92127 3.81477 9.74524 6.42216 11.4519 9.52426C6.6575 10.8347 2.42328 10.8079 1.96728 10.8079C2.63173 7.54534 4.78141 4.83098 7.64769 3.44037ZM1.7458 12.9741C1.7458 12.8671 1.7458 12.7601 1.7458 12.6532C2.18877 12.6665 7.16561 12.7334 12.2857 11.1556C12.5854 11.7439 12.859 12.3456 13.1196 12.9473C12.9893 12.9874 12.846 13.0276 12.7157 13.0676C7.42617 14.8192 4.61204 19.6062 4.37753 20.0073C2.74898 18.1487 1.7458 15.6751 1.7458 12.9741ZM12.0122 23.4972C9.64096 23.4972 7.45223 22.6682 5.71945 21.2776C5.90185 20.8898 7.98636 16.7715 13.771 14.699C13.797 14.6856 13.8101 14.6856 13.8361 14.6722C15.2822 18.5097 15.8686 21.7322 16.0249 22.6548C14.7872 23.203 13.4322 23.4972 12.0122 23.4972ZM17.7316 21.6921C17.6274 21.0503 17.0802 17.9749 15.7383 14.1908C18.9563 13.6693 21.7704 14.5251 22.1222 14.6455C21.6792 17.5738 20.0376 20.1009 17.7316 21.6921Z" fill="black"/>
</g>
<defs>
<clipPath id="clip0_137_430">
<rect width="24.0243" height="24.6565" fill="white" transform="translate(0 0.632416)"/>
</clipPath>
</defs>
</svg>
