<svg width="21" height="22" viewBox="0 0 21 22" fill="none" xmlns="http://www.w3.org/2000/svg">
<g clip-path="url(#clip0_137_437)">
<path d="M19.7284 0.844696H2.01075C1.40417 0.844696 0.912109 1.34457 0.912109 1.96077V19.9596C0.912109 20.5767 1.40417 21.0757 2.01075 21.0757H11.5483V13.2412H8.95192V10.1889H11.5483V7.93398C11.5483 5.32165 13.1199 3.90042 15.4143 3.90042C16.5138 3.90042 17.4589 3.98219 17.7344 4.01928V6.75046H16.1404C14.8957 6.75046 14.6534 7.35824 14.6534 8.24334V10.1914H17.6273L17.2415 13.2514H14.6534V21.0757H19.7275C20.3358 21.0757 20.827 20.5767 20.827 19.9596V1.96077C20.827 1.34457 20.3358 0.844696 19.7284 0.844696Z" fill="black"/>
</g>
<defs>
<clipPath id="clip0_137_437">
<rect width="19.9149" height="20.231" fill="white" transform="translate(0.912109 0.844696)"/>
</clipPath>
</defs>
</svg>
