<svg width="24" height="24" viewBox="0 0 24 24" fill="none" xmlns="http://www.w3.org/2000/svg">
<g clip-path="url(#clip0_137_435)">
<path fill-rule="evenodd" clip-rule="evenodd" d="M12.2156 0.262955C9.03864 0.262955 8.64097 0.277575 7.39388 0.333131C6.14825 0.391611 5.30029 0.58752 4.55467 0.876997C3.78565 1.17525 3.13214 1.57584 2.48301 2.22643C1.83241 2.87556 1.43036 3.52761 1.13357 4.29809C0.844097 5.04371 0.646726 5.89168 0.589708 7.13731C0.531227 8.3844 0.519531 8.78206 0.519531 11.959C0.519531 15.1359 0.534151 15.5336 0.589708 16.7807C0.648188 18.0263 0.844097 18.8758 1.13357 19.6199C1.43182 20.3889 1.83241 21.0424 2.48301 21.6916C3.13214 22.3422 3.78419 22.7442 4.55467 23.041C5.30029 23.3305 6.14825 23.5279 7.39388 23.5849C8.64097 23.6434 9.03864 23.6551 12.2156 23.6551C15.3925 23.6551 15.7902 23.6404 17.0373 23.5849C18.2829 23.5264 19.1323 23.3305 19.8765 23.041C20.6455 22.7428 21.299 22.3422 21.9482 21.6916C22.5987 21.0424 23.0008 20.3904 23.2976 19.6199C23.5871 18.8743 23.7844 18.0263 23.8415 16.7807C23.8999 15.5336 23.9116 15.1359 23.9116 11.959C23.9116 8.78206 23.897 8.3844 23.8415 7.13731C23.783 5.89168 23.5871 5.04225 23.2976 4.29809C22.9993 3.52908 22.5987 2.87556 21.9482 2.22643C21.299 1.57584 20.647 1.17378 19.8765 0.876997C19.1309 0.58752 18.2829 0.390149 17.0373 0.333131C15.7902 0.274651 15.3925 0.262955 12.2156 0.262955ZM12.2156 2.36824C15.3384 2.36824 15.7098 2.38286 16.9422 2.43842C18.0826 2.49105 18.701 2.68111 19.1133 2.84193C19.6601 3.05392 20.049 3.30685 20.4584 3.71621C20.8677 4.12557 21.1207 4.51447 21.3326 5.06126C21.4935 5.47354 21.6835 6.09197 21.7362 7.23234C21.7917 8.46627 21.8049 8.83616 21.8049 11.959C21.8049 15.0818 21.7903 15.4532 21.7347 16.6857C21.6821 17.826 21.492 18.4445 21.3312 18.8567C21.1192 19.4035 20.8663 19.7924 20.4569 20.2018C20.0475 20.6112 19.6587 20.8641 19.1119 21.0761C18.6996 21.2369 18.0811 21.427 16.9408 21.4796C15.7069 21.5351 15.337 21.5483 12.2141 21.5483C9.09127 21.5483 8.71992 21.5337 7.48745 21.4781C6.34709 21.4255 5.72866 21.2354 5.31637 21.0746C4.76958 20.8626 4.38069 20.6097 3.97133 20.2003C3.56197 19.791 3.30904 19.4021 3.09705 18.8553C2.93623 18.443 2.74617 17.8246 2.69353 16.6842C2.63944 15.4532 2.62482 15.0818 2.62482 11.959C2.62482 8.83616 2.63944 8.46481 2.695 7.23234C2.74763 6.09197 2.93769 5.47354 3.09851 5.06126C3.3105 4.51447 3.56343 4.12557 3.97279 3.71621C4.38215 3.30685 4.77105 3.05392 5.31784 2.84193C5.73012 2.68111 6.34855 2.49105 7.48891 2.43842C8.72139 2.38286 9.09274 2.36824 12.2156 2.36824ZM12.2156 5.95308C8.89683 5.95308 6.20966 8.64317 6.20966 11.959C6.20966 15.2778 8.89975 17.9649 12.2156 17.9649C15.5343 17.9649 18.2215 15.2748 18.2215 11.959C18.2215 8.64025 15.5314 5.95308 12.2156 5.95308ZM12.2156 15.8582C10.062 15.8582 8.31641 14.1125 8.31641 11.959C8.31641 9.80547 10.062 8.05983 12.2156 8.05983C14.3691 8.05983 16.1147 9.80547 16.1147 11.959C16.1147 14.1125 14.3691 15.8582 12.2156 15.8582ZM19.8619 5.71624C19.8619 6.4911 19.2332 7.11976 18.4583 7.11976C17.6835 7.11976 17.0548 6.4911 17.0548 5.71624C17.0548 4.94137 17.6835 4.31271 18.4583 4.31271C19.2332 4.31271 19.8619 4.94137 19.8619 5.71624Z" fill="black"/>
</g>
<defs>
<clipPath id="clip0_137_435">
<rect width="23.3921" height="23.3921" fill="white" transform="translate(0.519531 0.262955)"/>
</clipPath>
</defs>
</svg>
