<svg width="119" height="105" viewBox="0 0 119 105" fill="none" xmlns="http://www.w3.org/2000/svg">
<path d="M51.5522 18.9584C45.4337 28.8352 29.2452 35.463 21.9158 35.1464C21.9158 35.1464 19.5144 70.8681 51.5522 86.0417C78.7987 70.8465 81.6667 44.5139 81.6667 35.1464C65.9468 35.1464 55.0576 23.8652 51.5522 18.9584Z" fill="#136378"/>
<rect x="40.1431" y="55.4062" width="5.30275" height="13.9512" transform="rotate(-49.1214 40.1431 55.4062)" fill="white"/>
<rect x="50.6777" y="64.5632" width="5.24457" height="23.5378" transform="rotate(-139.139 50.6777 64.5632)" fill="white"/>
<path d="M89.2085 70.2327C89.2085 72.5119 82.2969 74.3595 73.771 74.3595C65.2451 74.3595 58.3335 72.5119 58.3335 70.2327" stroke="#FBB90F" stroke-width="2.91667"/>
<path d="M89.2085 78.0054C89.2085 80.2845 82.2969 82.1321 73.771 82.1321C65.2451 82.1321 58.3335 80.2845 58.3335 78.0054" stroke="#FBB90F" stroke-width="2.91667"/>
<path d="M89.2085 85.7778C89.2085 88.057 82.2969 89.9046 73.771 89.9046C65.2451 89.9046 58.3335 88.057 58.3335 85.7778" stroke="#FBB90F" stroke-width="2.91667"/>
<ellipse cx="73.771" cy="62.4601" rx="15.4375" ry="4.12677" stroke="#FBB90F" stroke-width="2.91667"/>
<path d="M85.0625 47.875C82.1563 47.8646 79.6458 47.1927 77.5313 45.8594C75.4167 44.526 73.7865 42.6042 72.6406 40.0937C71.4948 37.5833 70.9271 34.5729 70.9375 31.0625C70.9479 27.5417 71.5208 24.5521 72.6563 22.0938C73.8021 19.6354 75.4271 17.7656 77.5313 16.4844C79.6458 15.2031 82.1563 14.5625 85.0625 14.5625C87.9688 14.5625 90.4792 15.2083 92.5938 16.5C94.7083 17.7812 96.3385 19.651 97.4844 22.1094C98.6302 24.5677 99.1979 27.5521 99.1875 31.0625C99.1875 34.5937 98.6146 37.6146 97.4688 40.125C96.3229 42.6354 94.6927 44.5573 92.5781 45.8906C90.474 47.2135 87.9688 47.875 85.0625 47.875ZM85.0625 40.8125C86.5625 40.8125 87.7917 40.0312 88.75 38.4687C89.7188 36.8958 90.1979 34.4271 90.1875 31.0625C90.1875 28.8646 89.9688 27.0677 89.5313 25.6719C89.0938 24.276 88.4896 23.2448 87.7188 22.5781C86.9479 21.901 86.0625 21.5625 85.0625 21.5625C83.5625 21.5625 82.3385 22.3229 81.3906 23.8437C80.4427 25.3646 79.9583 27.7708 79.9375 31.0625C79.9271 33.3021 80.1406 35.1458 80.5781 36.5937C81.0156 38.0312 81.6198 39.0938 82.3906 39.7812C83.1719 40.4688 84.0625 40.8125 85.0625 40.8125ZM118.953 15V47H110.266V23H110.078L103.078 27.1875V19.8125L110.953 15H118.953Z" fill="#E2E2E2"/>
</svg>
