<svg width="125" height="105" viewBox="0 0 125 105" fill="none" xmlns="http://www.w3.org/2000/svg">
<path d="M51.5522 18.9584C45.4337 28.8352 29.2452 35.463 21.9158 35.1464C21.9158 35.1464 19.5144 70.8681 51.5522 86.0417C78.7987 70.8465 81.6667 44.5139 81.6667 35.1464C65.9468 35.1464 55.0576 23.8652 51.5522 18.9584Z" fill="#136378"/>
<rect x="40.1431" y="55.4062" width="5.30275" height="13.9512" transform="rotate(-49.1214 40.1431 55.4062)" fill="white"/>
<rect x="50.6777" y="64.5632" width="5.24457" height="23.5378" transform="rotate(-139.139 50.6777 64.5632)" fill="white"/>
<path d="M89.2085 70.2327C89.2085 72.5119 82.2969 74.3595 73.771 74.3595C65.2451 74.3595 58.3335 72.5119 58.3335 70.2327" stroke="#FBB90F" stroke-width="2.91667"/>
<path d="M89.2085 78.0054C89.2085 80.2845 82.2969 82.1321 73.771 82.1321C65.2451 82.1321 58.3335 80.2845 58.3335 78.0054" stroke="#FBB90F" stroke-width="2.91667"/>
<path d="M89.2085 85.7778C89.2085 88.057 82.2969 89.9046 73.771 89.9046C65.2451 89.9046 58.3335 88.057 58.3335 85.7778" stroke="#FBB90F" stroke-width="2.91667"/>
<ellipse cx="73.771" cy="62.4601" rx="15.4375" ry="4.12677" stroke="#FBB90F" stroke-width="2.91667"/>
<path d="M82.0625 47.875C79.1563 47.8646 76.6458 47.1927 74.5313 45.8594C72.4167 44.526 70.7865 42.6042 69.6406 40.0937C68.4948 37.5833 67.9271 34.5729 67.9375 31.0625C67.9479 27.5417 68.5208 24.5521 69.6563 22.0938C70.8021 19.6354 72.4271 17.7656 74.5313 16.4844C76.6458 15.2031 79.1563 14.5625 82.0625 14.5625C84.9688 14.5625 87.4792 15.2083 89.5938 16.5C91.7083 17.7812 93.3385 19.651 94.4844 22.1094C95.6302 24.5677 96.1979 27.5521 96.1875 31.0625C96.1875 34.5937 95.6146 37.6146 94.4688 40.125C93.3229 42.6354 91.6927 44.5573 89.5781 45.8906C87.474 47.2135 84.9688 47.875 82.0625 47.875ZM82.0625 40.8125C83.5625 40.8125 84.7917 40.0312 85.75 38.4687C86.7188 36.8958 87.1979 34.4271 87.1875 31.0625C87.1875 28.8646 86.9688 27.0677 86.5313 25.6719C86.0938 24.276 85.4896 23.2448 84.7188 22.5781C83.9479 21.901 83.0625 21.5625 82.0625 21.5625C80.5625 21.5625 79.3385 22.3229 78.3906 23.8437C77.4427 25.3646 76.9583 27.7708 76.9375 31.0625C76.9271 33.3021 77.1406 35.1458 77.5781 36.5937C78.0156 38.0312 78.6198 39.0938 79.3906 39.7812C80.1719 40.4688 81.0625 40.8125 82.0625 40.8125ZM100.266 47V40.75L112.203 30.875C112.995 30.2187 113.672 29.6042 114.234 29.0312C114.807 28.4479 115.245 27.849 115.547 27.2344C115.859 26.6198 116.016 25.9375 116.016 25.1875C116.016 24.3646 115.839 23.6615 115.484 23.0781C115.141 22.4948 114.661 22.0469 114.047 21.7344C113.432 21.4115 112.724 21.25 111.922 21.25C111.12 21.25 110.411 21.4115 109.797 21.7344C109.193 22.0573 108.724 22.5312 108.391 23.1562C108.057 23.7812 107.891 24.5417 107.891 25.4375H99.6406C99.6406 23.1875 100.146 21.25 101.156 19.625C102.167 18 103.594 16.75 105.438 15.875C107.281 15 109.443 14.5625 111.922 14.5625C114.484 14.5625 116.703 14.974 118.578 15.7969C120.464 16.6094 121.917 17.7552 122.938 19.2344C123.969 20.7135 124.484 22.4479 124.484 24.4375C124.484 25.6667 124.229 26.8906 123.719 28.1094C123.208 29.3177 122.292 30.6562 120.969 32.125C119.646 33.5938 117.766 35.3438 115.328 37.375L112.328 39.875V40.0625H124.828V47H100.266Z" fill="#E2E2E2"/>
</svg>
