<svg width="126" height="105" viewBox="0 0 126 105" fill="none" xmlns="http://www.w3.org/2000/svg">
<path d="M51.5522 18.9584C45.4337 28.8352 29.2452 35.463 21.9158 35.1464C21.9158 35.1464 19.5144 70.8681 51.5522 86.0417C78.7987 70.8465 81.6667 44.5139 81.6667 35.1464C65.9468 35.1464 55.0576 23.8652 51.5522 18.9584Z" fill="#136378"/>
<rect x="40.1431" y="55.4062" width="5.30275" height="13.9512" transform="rotate(-49.1214 40.1431 55.4062)" fill="white"/>
<rect x="50.6777" y="64.5632" width="5.24457" height="23.5378" transform="rotate(-139.139 50.6777 64.5632)" fill="white"/>
<path d="M89.2085 70.2327C89.2085 72.5119 82.2969 74.3595 73.771 74.3595C65.2451 74.3595 58.3335 72.5119 58.3335 70.2327" stroke="#FBB90F" stroke-width="2.91667"/>
<path d="M89.2085 78.0054C89.2085 80.2845 82.2969 82.1321 73.771 82.1321C65.2451 82.1321 58.3335 80.2845 58.3335 78.0054" stroke="#FBB90F" stroke-width="2.91667"/>
<path d="M89.2085 85.7778C89.2085 88.057 82.2969 89.9046 73.771 89.9046C65.2451 89.9046 58.3335 88.057 58.3335 85.7778" stroke="#FBB90F" stroke-width="2.91667"/>
<ellipse cx="73.771" cy="62.4601" rx="15.4375" ry="4.12677" stroke="#FBB90F" stroke-width="2.91667"/>
<path d="M81.0625 47.875C78.1563 47.8646 75.6458 47.1927 73.5313 45.8594C71.4167 44.526 69.7865 42.6042 68.6406 40.0937C67.4948 37.5833 66.9271 34.5729 66.9375 31.0625C66.9479 27.5417 67.5208 24.5521 68.6563 22.0938C69.8021 19.6354 71.4271 17.7656 73.5313 16.4844C75.6458 15.2031 78.1563 14.5625 81.0625 14.5625C83.9688 14.5625 86.4792 15.2083 88.5938 16.5C90.7083 17.7812 92.3385 19.651 93.4844 22.1094C94.6302 24.5677 95.1979 27.5521 95.1875 31.0625C95.1875 34.5937 94.6146 37.6146 93.4688 40.125C92.3229 42.6354 90.6927 44.5573 88.5781 45.8906C86.474 47.2135 83.9688 47.875 81.0625 47.875ZM81.0625 40.8125C82.5625 40.8125 83.7917 40.0312 84.75 38.4687C85.7188 36.8958 86.1979 34.4271 86.1875 31.0625C86.1875 28.8646 85.9688 27.0677 85.5313 25.6719C85.0938 24.276 84.4896 23.2448 83.7188 22.5781C82.9479 21.901 82.0625 21.5625 81.0625 21.5625C79.5625 21.5625 78.3385 22.3229 77.3906 23.8437C76.4427 25.3646 75.9583 27.7708 75.9375 31.0625C75.9271 33.3021 76.1406 35.1458 76.5781 36.5937C77.0156 38.0312 77.6198 39.0938 78.3906 39.7812C79.1719 40.4688 80.0625 40.8125 81.0625 40.8125ZM111.766 47.4375C109.245 47.4375 107.005 47.0052 105.047 46.1406C103.099 45.2656 101.568 44.0625 100.453 42.5312C99.3385 41 98.776 39.2396 98.7656 37.25H107.516C107.526 37.8646 107.714 38.4167 108.078 38.9062C108.453 39.3854 108.964 39.7604 109.609 40.0312C110.255 40.3021 110.995 40.4375 111.828 40.4375C112.63 40.4375 113.339 40.2969 113.953 40.0156C114.568 39.724 115.047 39.3229 115.391 38.8125C115.734 38.3021 115.901 37.7187 115.891 37.0625C115.901 36.4167 115.703 35.8437 115.297 35.3437C114.901 34.8437 114.344 34.4531 113.625 34.1719C112.906 33.8906 112.078 33.75 111.141 33.75H107.891V27.75H111.141C112.005 27.75 112.766 27.6094 113.422 27.3281C114.089 27.0469 114.604 26.6562 114.969 26.1562C115.344 25.6562 115.526 25.0833 115.516 24.4375C115.526 23.8125 115.375 23.2604 115.063 22.7813C114.75 22.3021 114.313 21.9271 113.75 21.6563C113.198 21.3854 112.557 21.25 111.828 21.25C111.036 21.25 110.328 21.3906 109.703 21.6719C109.089 21.9531 108.604 22.3438 108.25 22.8437C107.896 23.3437 107.714 23.9167 107.703 24.5625H99.3906C99.401 22.6042 99.9375 20.875 101 19.375C102.073 17.875 103.542 16.6979 105.406 15.8437C107.271 14.9896 109.411 14.5625 111.828 14.5625C114.193 14.5625 116.281 14.9635 118.094 15.7656C119.917 16.5677 121.339 17.6719 122.359 19.0781C123.391 20.474 123.901 22.0729 123.891 23.875C123.911 25.6667 123.297 27.1354 122.047 28.2812C120.807 29.4271 119.234 30.1042 117.328 30.3125V30.5625C119.911 30.8437 121.854 31.6354 123.156 32.9375C124.458 34.2292 125.099 35.8542 125.078 37.8125C125.089 39.6875 124.526 41.349 123.391 42.7969C122.266 44.2448 120.698 45.3802 118.688 46.2031C116.688 47.026 114.38 47.4375 111.766 47.4375Z" fill="#E2E2E2"/>
</svg>
