<svg width="22" height="24" viewBox="0 0 22 24" fill="none" xmlns="http://www.w3.org/2000/svg">
<g clip-path="url(#clip0_137_433)">
<path d="M21.4782 5.17003C20.6855 5.53381 19.8391 5.78163 18.948 5.89478C19.8562 5.3234 20.5548 4.42284 20.8853 3.34835C20.0335 3.86736 19.0895 4.24516 18.0846 4.45557C17.2821 3.55876 16.1383 2.99767 14.8683 2.99767C12.4349 2.99767 10.4618 5.05782 10.4618 7.59583C10.4618 7.96054 10.5021 8.31123 10.5755 8.64695C6.91232 8.46646 3.66561 6.62981 1.49278 3.85333C1.11034 4.52852 0.896282 5.31311 0.896282 6.16785C0.896282 7.76697 1.67549 9.17251 2.85595 9.99825C2.13317 9.97394 1.45337 9.76633 0.860457 9.42219V9.47924C0.860457 11.7096 2.37678 13.5696 4.39467 13.9932C4.02476 14.097 3.63426 14.1532 3.23391 14.1532C2.95268 14.1532 2.68309 14.1251 2.4135 14.0727C2.97865 15.8991 4.60335 17.2308 6.53704 17.2682C5.03236 18.5016 3.12554 19.2367 1.07183 19.2367C0.722528 19.2367 0.374122 19.2152 0.0239258 19.174C1.98449 20.4776 4.29435 21.2398 6.7923 21.2398C14.9015 21.2398 19.3304 14.2298 19.3304 8.16067C19.3304 7.96522 19.3304 7.7679 19.317 7.57152C20.1777 6.92719 20.9291 6.11267 21.5203 5.18874L21.4782 5.17003Z" fill="black"/>
</g>
<defs>
<clipPath id="clip0_137_433">
<rect width="21.4954" height="22.4438" fill="white" transform="translate(0.0239258 0.89772)"/>
</clipPath>
</defs>
</svg>
